<svg width="22.000000" height="22.000000" viewBox="0 0 22 22" fill="none" xmlns="http://www.w3.org/2000/svg" xmlns:xlink="http://www.w3.org/1999/xlink">
	<desc>
			Created with Pixso.
	</desc>
	<defs>
		<clipPath id="clip113_360">
			<rect id="angle-small-down 1" rx="0.000000" width="21.000000" height="21.000000" transform="translate(0.500000 0.500000)" fill="white" fill-opacity="0"/>
		</clipPath>
	</defs>
	<rect id="angle-small-down 1" rx="0.000000" width="21.000000" height="21.000000" transform="translate(0.500000 0.500000)" fill="#FFFFFF" fill-opacity="0"/>
	<g clip-path="url(#clip113_360)">
		<path id="Vector" d="M17.15 7.52C17.06 7.43 16.96 7.37 16.85 7.32C16.74 7.27 16.62 7.25 16.49 7.25C16.37 7.25 16.25 7.27 16.14 7.32C16.03 7.37 15.93 7.43 15.84 7.52L11.65 11.72C11.56 11.81 11.46 11.87 11.35 11.92C11.24 11.97 11.12 11.99 10.99 11.99C10.87 11.99 10.75 11.97 10.64 11.92C10.53 11.87 10.43 11.81 10.34 11.72L6.15 7.52C6.06 7.43 5.96 7.37 5.85 7.32C5.74 7.27 5.62 7.25 5.49 7.25C5.37 7.25 5.25 7.27 5.14 7.32C5.03 7.37 4.93 7.43 4.84 7.52C4.67 7.69 4.58 7.92 4.58 8.17C4.58 8.41 4.67 8.64 4.84 8.81L9.05 13.02C9.57 13.54 10.27 13.83 10.99 13.83C11.72 13.83 12.42 13.54 12.94 13.02L17.15 8.81C17.32 8.64 17.41 8.41 17.41 8.17C17.41 7.92 17.32 7.69 17.15 7.52Z" fill="#FFFFFF" fill-opacity="1.000000" fill-rule="nonzero"/>
	</g>
</svg>
