<!-- icon666.com - MILLIONS OF FREE VECTOR ICONS --><svg viewBox="0 0 32 32" xmlns="http://www.w3.org/2000/svg"><g id="Support"><path d="m26 32h-10a1 1 0 0 1 0-2h10a1 1 0 0 0 1-1v-2a1 1 0 0 1 2 0v2a3 3 0 0 1 -3 3z" fill="#9f85ec" style="fill: rgb(242, 242, 242);"></path><path d="m29 15.23c0-.23 0 .15 0-2.23a13 13 0 0 0 -26 0v2.23a7 7 0 0 0 -2.6 8.1 1 1 0 0 0 1.28.61 1 1 0 0 0 .6-1.27 5 5 0 0 1 3.72-6.57v9.8a5.05 5.05 0 0 1 -1.5-.57 1 1 0 1 0 -1 1.73c1.9 1.1 3.4.94 5.5.94a3 3 0 0 0 3-3v-8a3 3 0 0 0 -3-3 12.67 12.67 0 0 0 -4 .29v-1.29a11 11 0 0 1 22 0v1.29a12.76 12.76 0 0 0 -4-.29 3 3 0 0 0 -3 3v8a3 3 0 0 0 3 3h2a7 7 0 0 0 4-12.77zm-19 1.77v8a1 1 0 0 1 -1 1h-1v-10h1a1 1 0 0 1 1 1zm12 8v-8a1 1 0 0 1 1-1h1v10h-1a1 1 0 0 1 -1-1zm4 .9v-9.8a5 5 0 0 1 0 9.8z" fill="#38004d" style="fill: rgb(245, 245, 245);"></path></g></svg>